<svg width="114" height="115" viewBox="0 0 114 115" fill="none" xmlns="http://www.w3.org/2000/svg">
<path d="M76.2568 76.6667C76.2568 84.2483 74.0206 91.6596 69.831 97.9635C65.6414 104.267 59.6865 109.181 52.7195 112.082C45.7524 114.983 38.0861 115.743 30.6899 114.263C23.2937 112.784 16.4999 109.133 11.1676 103.772C5.83521 98.4114 2.20383 91.5811 0.732643 84.1451C-0.738548 76.7092 0.0165205 69.0016 2.90237 61.9971C5.78821 54.9926 10.6752 49.0058 16.9454 44.7937C23.2156 40.5815 30.5873 38.3333 38.1284 38.3333V58.1524C34.4862 58.1524 30.9258 59.2383 27.8974 61.2727C24.8691 63.307 22.5087 66.1985 21.1149 69.5816C19.7211 72.9646 19.3564 76.6872 20.067 80.2786C20.7776 83.87 22.5314 87.1689 25.1068 89.7582C27.6823 92.3475 30.9635 94.1108 34.5358 94.8251C38.108 95.5395 41.8106 95.1729 45.1756 93.7716C48.5405 92.3703 51.4166 89.9973 53.4401 86.9526C55.4636 83.908 56.5436 80.3284 56.5436 76.6667H76.2568Z" fill="#0D0D0D"/>
<path d="M37.7435 38.209C37.7679 30.6274 40.028 23.2234 44.2379 16.9332C48.4479 10.643 54.4185 5.74918 61.3949 2.87056C68.3713 -0.00805879 76.04 -0.742176 83.4314 0.761042C90.8228 2.26426 97.6048 5.9373 102.92 11.3157C108.235 16.694 111.844 23.5362 113.291 30.9769C114.738 38.4176 113.959 46.1226 111.05 53.1177C108.142 60.1127 103.235 66.0836 96.9516 70.2753C90.6679 74.4669 83.2889 76.6911 75.7479 76.6665L75.8119 56.8475C79.454 56.8593 83.0179 55.7851 86.0528 53.7606C89.0878 51.7362 91.4574 48.8523 92.8621 45.4739C94.2668 42.0954 94.6435 38.374 93.9446 34.7803C93.2456 31.1866 91.5024 27.882 88.9353 25.2844C86.3683 22.6867 83.0927 20.9127 79.5228 20.1867C75.953 19.4607 72.2491 19.8152 68.8797 21.2055C65.5102 22.5958 62.6265 24.9595 60.5932 27.9975C58.5599 31.0355 57.4683 34.6115 57.4565 38.2733L37.7435 38.209Z" fill="#0D0D0D"/>
<path d="M56.4223 38.3333H75.8716V57.8872H56.4223V38.3333Z" fill="#0D0D0D"/>
<path d="M37.5507 57.5H57V77.0539H37.5507V57.5Z" fill="#0D0D0D"/>
</svg>
