<svg width="532" height="115" viewBox="0 0 532 115" fill="none" xmlns="http://www.w3.org/2000/svg">
<path d="M76.2568 76.6667C76.2568 84.2483 74.0206 91.6596 69.831 97.9635C65.6414 104.267 59.6865 109.181 52.7195 112.082C45.7524 114.983 38.0861 115.743 30.6899 114.263C23.2937 112.784 16.4999 109.133 11.1676 103.772C5.83521 98.4114 2.20383 91.5811 0.732643 84.1451C-0.738548 76.7092 0.0165205 69.0016 2.90237 61.9971C5.78821 54.9926 10.6752 49.0058 16.9454 44.7937C23.2156 40.5815 30.5873 38.3333 38.1284 38.3333V58.1524C34.4862 58.1524 30.9258 59.2383 27.8974 61.2727C24.8691 63.307 22.5087 66.1985 21.1149 69.5816C19.7211 72.9646 19.3564 76.6872 20.067 80.2786C20.7776 83.87 22.5314 87.1689 25.1068 89.7582C27.6823 92.3475 30.9635 94.1108 34.5358 94.8251C38.108 95.5395 41.8106 95.1729 45.1756 93.7716C48.5405 92.3703 51.4166 89.9973 53.4401 86.9526C55.4636 83.908 56.5436 80.3284 56.5436 76.6667H76.2568Z" fill="white"/>
<path d="M37.7435 38.209C37.7679 30.6274 40.028 23.2234 44.2379 16.9332C48.4479 10.643 54.4185 5.74918 61.3949 2.87056C68.3713 -0.00805879 76.04 -0.742176 83.4314 0.761042C90.8228 2.26426 97.6048 5.9373 102.92 11.3157C108.235 16.694 111.844 23.5362 113.291 30.9769C114.738 38.4176 113.959 46.1226 111.05 53.1177C108.142 60.1127 103.235 66.0836 96.9516 70.2753C90.6679 74.4669 83.2889 76.6911 75.7479 76.6665L75.8119 56.8475C79.454 56.8593 83.0179 55.7851 86.0528 53.7606C89.0878 51.7362 91.4574 48.8523 92.8621 45.4739C94.2668 42.0954 94.6435 38.374 93.9446 34.7803C93.2456 31.1866 91.5024 27.882 88.9353 25.2844C86.3683 22.6867 83.0927 20.9127 79.5228 20.1867C75.953 19.4607 72.2491 19.8152 68.8797 21.2055C65.5102 22.5958 62.6265 24.9595 60.5932 27.9975C58.5599 31.0355 57.4683 34.6115 57.4565 38.2733L37.7435 38.209Z" fill="white"/>
<path d="M56.4223 38.3333H75.8716V57.8872H56.4223V38.3333Z" fill="white"/>
<path d="M37.5507 57.5H57V77.0539H37.5507V57.5Z" fill="white"/>
<path d="M149.47 94L149.4 24H166.48L166.55 30.23C168.93 27.71 171.777 25.7267 175.09 24.28C178.403 22.7867 181.973 22.04 185.8 22.04C188.367 22.04 190.933 22.4133 193.5 23.16L186.78 40.38C185.007 39.68 183.233 39.33 181.46 39.33C178.707 39.33 176.187 40.0067 173.9 41.36C171.66 42.6667 169.863 44.4633 168.51 46.75C167.203 48.99 166.55 51.4867 166.55 54.24V94H149.47Z" fill="white"/>
<path d="M250.852 24H267.932V94H250.852L250.082 85.32C248.169 88.4467 245.625 90.99 242.452 92.95C239.325 94.8633 235.615 95.82 231.322 95.82C226.142 95.82 221.289 94.84 216.762 92.88C212.235 90.92 208.245 88.2133 204.792 84.76C201.385 81.3067 198.702 77.3167 196.742 72.79C194.829 68.2633 193.872 63.41 193.872 58.23C193.872 53.2367 194.782 48.5467 196.602 44.16C198.469 39.7733 201.059 35.9233 204.372 32.61C207.685 29.2967 211.512 26.7067 215.852 24.84C220.192 22.9733 224.859 22.04 229.852 22.04C234.472 22.04 238.602 23.0667 242.242 25.12C245.929 27.1733 249.055 29.7867 251.622 32.96L250.852 24ZM230.902 79.37C234.542 79.37 237.762 78.46 240.562 76.64C243.362 74.82 245.555 72.37 247.142 69.29C248.729 66.1633 249.522 62.7333 249.522 59C249.522 55.22 248.729 51.79 247.142 48.71C245.555 45.5833 243.339 43.11 240.492 41.29C237.692 39.47 234.495 38.56 230.902 38.56C227.309 38.56 224.019 39.4933 221.032 41.36C218.092 43.18 215.735 45.63 213.962 48.71C212.235 51.79 211.372 55.22 211.372 59C211.372 62.78 212.259 66.21 214.032 69.29C215.805 72.37 218.162 74.82 221.102 76.64C224.089 78.46 227.355 79.37 230.902 79.37Z" fill="white"/>
<path d="M281.88 94V24H298.96V30.23C301.34 27.71 304.187 25.7267 307.5 24.28C310.814 22.7867 314.384 22.04 318.21 22.04C323.064 22.04 327.52 23.1833 331.58 25.47C335.687 27.7567 338.954 30.8133 341.38 34.64C343.854 30.8133 347.12 27.7567 351.18 25.47C355.24 23.1833 359.697 22.04 364.55 22.04C369.684 22.04 374.327 23.3 378.48 25.82C382.68 28.2933 386.017 31.63 388.49 35.83C391.01 39.9833 392.27 44.6267 392.27 49.76V94H375.19V54.31C375.19 51.6033 374.514 49.13 373.16 46.89C371.854 44.6033 370.08 42.7833 367.84 41.43C365.647 40.03 363.174 39.33 360.42 39.33C357.667 39.33 355.17 40.0067 352.93 41.36C350.737 42.6667 348.964 44.44 347.61 46.68C346.257 48.92 345.58 51.4633 345.58 54.31V94H328.5V54.31C328.5 51.4633 327.847 48.92 326.54 46.68C325.234 44.44 323.46 42.6667 321.22 41.36C318.98 40.0067 316.484 39.33 313.73 39.33C311.024 39.33 308.55 40.03 306.31 41.43C304.07 42.7833 302.274 44.6033 300.92 46.89C299.614 49.13 298.96 51.6033 298.96 54.31V94H281.88Z" fill="white"/>
<path d="M435.727 95.82C429.287 95.82 423.407 94.1633 418.087 90.85C412.814 87.5367 408.591 83.1033 405.417 77.55C402.291 71.95 400.727 65.7667 400.727 59C400.727 53.8667 401.637 49.0833 403.457 44.65C405.277 40.17 407.774 36.25 410.947 32.89C414.167 29.4833 417.901 26.8233 422.147 24.91C426.394 22.9967 430.921 22.04 435.727 22.04C442.167 22.04 448.024 23.6967 453.297 27.01C458.617 30.3233 462.841 34.78 465.967 40.38C469.141 45.98 470.727 52.1867 470.727 59C470.727 64.0867 469.817 68.8467 467.997 73.28C466.177 77.7133 463.657 81.6333 460.437 85.04C457.264 88.4 453.554 91.0367 449.307 92.95C445.107 94.8633 440.581 95.82 435.727 95.82ZM435.727 78.74C439.134 78.74 442.191 77.83 444.897 76.01C447.604 74.19 449.727 71.7867 451.267 68.8C452.854 65.8133 453.647 62.5467 453.647 59C453.647 55.36 452.831 52.0467 451.197 49.06C449.611 46.0267 447.441 43.6233 444.687 41.85C441.981 40.03 438.994 39.12 435.727 39.12C432.367 39.12 429.334 40.03 426.627 41.85C423.921 43.67 421.774 46.0967 420.187 49.13C418.601 52.1633 417.807 55.4533 417.807 59C417.807 62.6867 418.624 66.0233 420.257 69.01C421.891 71.9967 424.061 74.3767 426.767 76.15C429.521 77.8767 432.507 78.74 435.727 78.74Z" fill="white"/>
<path d="M502.823 95.26C499.183 95.0267 495.66 94.3033 492.253 93.09C488.893 91.83 485.907 90.1267 483.293 87.98C480.68 85.8333 478.673 83.2667 477.273 80.28L491.693 74.12C492.253 75.0533 493.163 76.0567 494.423 77.13C495.683 78.1567 497.177 79.02 498.903 79.72C500.677 80.42 502.613 80.77 504.713 80.77C506.487 80.77 508.167 80.5367 509.753 80.07C511.387 79.5567 512.693 78.7867 513.673 77.76C514.7 76.7333 515.213 75.4033 515.213 73.77C515.213 72.0433 514.607 70.7133 513.393 69.78C512.227 68.8 510.733 68.0767 508.913 67.61C507.14 67.0967 505.413 66.63 503.733 66.21C499.3 65.3233 495.17 63.9467 491.343 62.08C487.563 60.2133 484.507 57.81 482.173 54.87C479.887 51.8833 478.743 48.29 478.743 44.09C478.743 39.47 479.957 35.48 482.383 32.12C484.857 28.76 488.053 26.17 491.973 24.35C495.94 22.53 500.21 21.62 504.783 21.62C510.337 21.62 515.423 22.7867 520.043 25.12C524.71 27.4067 528.397 30.65 531.103 34.85L517.593 42.83C516.94 41.71 516.03 40.6833 514.863 39.75C513.697 38.77 512.367 37.9767 510.873 37.37C509.38 36.7167 507.817 36.3433 506.183 36.25C504.083 36.1567 502.17 36.3433 500.443 36.81C498.717 37.2767 497.317 38.07 496.243 39.19C495.217 40.31 494.703 41.8033 494.703 43.67C494.703 45.4433 495.403 46.7733 496.803 47.66C498.203 48.5 499.883 49.1533 501.843 49.62C503.85 50.0867 505.763 50.6 507.583 51.16C511.69 52.5133 515.54 54.17 519.133 56.13C522.773 58.09 525.69 60.4933 527.883 63.34C530.077 66.1867 531.127 69.5933 531.033 73.56C531.033 78.0867 529.68 82.0533 526.973 85.46C524.267 88.82 520.767 91.3867 516.473 93.16C512.227 94.9333 507.677 95.6333 502.823 95.26Z" fill="white"/>
</svg>
